<?xml version="1.0" encoding="UTF-8" standalone="no"?>
<svg width="180px" height="63px" viewBox="0 0 180 63" version="1.1" xmlns="http://www.w3.org/2000/svg" xmlns:xlink="http://www.w3.org/1999/xlink">
    <!-- Generator: Sketch 48.2 (47327) - http://www.bohemiancoding.com/sketch -->
    <title>CLAQUETEBUSINESS_logo-header</title>
    <desc>Created with Sketch.</desc>
    <defs>
        <linearGradient x1="81.5954557%" y1="81.582164%" x2="17.6241055%" y2="20.9941251%" id="linearGradient-1">
            <stop stop-color="#FBB03B" stop-opacity="0" offset="0%"></stop>
            <stop stop-color="#FBB03B" offset="100%"></stop>
        </linearGradient>
        <linearGradient x1="49.9990825%" y1="25.7714117%" x2="49.9990825%" y2="98.7889087%" id="linearGradient-2">
            <stop stop-color="#FFFFFF" stop-opacity="0" offset="0%"></stop>
            <stop stop-color="#FFFFFF" offset="100%"></stop>
        </linearGradient>
    </defs>
    <g id="Symbols" stroke="none" stroke-width="1" fill="none" fill-rule="evenodd">
        <g id="CLAQUETEBUSINESS_logo-header">
            <rect id="Rectangle" fill="#FFFFFF" x="0" y="0" width="180" height="63" rx="31.5"></rect>
            <g id="CLAQUETEBUSINESS_logo-full" transform="translate(8.000000, 6.000000)">
                <g>
                    <ellipse id="Oval" fill="#6633CC" fill-rule="nonzero" cx="25.4867257" cy="25.5" rx="25.4867257" ry="25.5"></ellipse>
                    <path d="M50.9734513,25.2480716 C50.9734513,23.8012357 50.8530342,22.3829684 50.6254797,21.0012165 L39.1279389,10.625 L9.91150442,21.5987417 L9.91150442,40.9368304 L19.1183238,50.2123531 C21.1318662,50.726084 23.2402645,51 25.4122663,51 C39.5293294,51 50.9734513,39.4704794 50.9734513,25.2480716 Z" id="Shape" fill="url(#linearGradient-1)" fill-rule="nonzero" opacity="0.5"></path>
                    <rect id="Rectangle-path" fill="#414952" fill-rule="nonzero" x="9.91150442" y="23.375" width="31.1504425" height="17.7083333"></rect>
                    <rect id="Rectangle-path" fill="#23272B" fill-rule="nonzero" x="25.4867257" y="23.375" width="15.5752212" height="17.7083333"></rect>
                    <g id="Group" transform="translate(9.911504, 21.958333)" fill-rule="nonzero">
                        <g>
                            <rect id="Rectangle-path" fill="#FFFFFF" x="0.0751831427" y="0.0795942982" width="30.7142923" height="3.38247807"></rect>
                            <rect id="Rectangle-path" fill="#F7F7F7" x="15.4085873" y="0.0796875" width="15.3808882" height="3.38219846"></rect>
                            <polygon id="Shape" fill="#707789" points="15.7291049 3.46235197 12.8932165 3.46235197 15.1355537 0.0796875 17.9714421 0.0796875"></polygon>
                            <polygon id="Shape" fill="#636978" points="17.9714421 0.0796875 15.4087851 0.0796875 15.4087851 3.46235197 15.7291049 3.46235197"></polygon>
                            <g fill="#707789" id="Shape">
                                <polygon points="9.3199398 3.46235197 6.48415036 3.46235197 8.72638867 0.0796875 11.562277 0.0796875"></polygon>
                                <polygon points="2.91077473 3.46235197 0.0749852924 3.46235197 2.3172236 0.0796875 5.15311196 0.0796875"></polygon>
                            </g>
                        </g>
                        <g transform="translate(19.290412, 0.000000)" fill="#636978" id="Shape">
                            <polygon points="2.84785831 3.46235197 0.0119699477 3.46235197 2.25430718 0.0796875 5.09009661 0.0796875"></polygon>
                            <polygon points="9.25702338 3.46235197 6.42113502 3.46235197 8.66347225 0.0796875 11.4992617 0.0796875"></polygon>
                        </g>
                    </g>
                    <polygon id="Shape" fill="#F7F7F7" fill-rule="nonzero" points="39.4079862 10.625 25.8986446 13.7936546 9.20353982 17.7328762 10.0480932 21.25 40.3539823 14.2406847"></polygon>
                    <polygon id="Shape" fill="#707789" fill-rule="nonzero" points="25.22091 18.439862 22.6548673 19.125 23.7013452 14.8543819 26.1946903 14.1666667"></polygon>
                    <polygon id="Shape" fill="#636978" fill-rule="nonzero" points="25.5914797 14.3278003 25.4867257 17 26.1946903 14.1666667"></polygon>
                    <g id="Group" transform="translate(9.911504, 15.583333)" fill="#707789" fill-rule="nonzero">
                        <polygon id="Shape" points="8.73613342 4.2228 6.078516 4.87461923 7.18688904 0.719394231 9.84450647 0.067575"></polygon>
                        <polygon id="Shape" points="2.72985705 5.69591538 0.0722396188 6.34763654 1.18070796 2.19241154 3.83823009 1.54059231"></polygon>
                    </g>
                    <g id="Group" transform="translate(28.318584, 10.625000)" fill="#636978" fill-rule="nonzero">
                        <polygon id="Shape" points="2.73633764 5.69022692 0.0787202178 6.34204615 1.18718856 2.18682115 3.84480599 1.53500192"></polygon>
                        <polygon id="Shape" points="8.74261402 4.21720962 6.0849966 4.86902885 7.19346494 0.713803846 9.85098707 0.0619846154"></polygon>
                    </g>
                    <path d="M26.8118377,32.4067981 C26.6210025,32.2021097 26.4183861,32.0336815 26.2036965,31.9013169 C25.9891043,31.7689524 25.7941797,31.658796 25.6195071,31.5704547 C25.3094972,31.4181421 25.1008442,31.3015984 24.9935481,31.2215115 C24.8862519,31.1413263 24.8325065,31.0368693 24.8325065,30.908632 C24.8325065,30.7481633 24.8841099,30.635845 24.9875114,30.571579 C25.0907182,30.5074111 25.2060957,30.4752781 25.3332542,30.4752781 C25.500235,30.4752781 25.6750051,30.5216597 25.8578564,30.6137352 C26.0406103,30.7061054 26.1996072,30.8203889 26.3347497,30.9567824 L27.6106195,28.9951929 C27.3403345,28.7384234 27.0044255,28.5300008 26.6030874,28.3694339 C26.3077796,28.2514162 25.983165,28.177127 25.6298277,28.1458783 L25.6298277,26.9166667 L23.9746243,26.9166667 L23.9746243,28.3713992 C23.7236175,28.4733012 23.4907207,28.6109721 23.2765179,28.7846085 C22.994257,29.0130773 22.7617496,29.3100377 22.5789957,29.6750966 C22.396047,30.0402537 22.3047187,30.4833359 22.3047187,31.004638 C22.3047187,31.365668 22.3542774,31.6807093 22.4537844,31.9493691 C22.5530966,32.2182253 22.6862918,32.452885 22.8531752,32.653348 C23.0201561,32.8539093 23.2108939,33.0244993 23.4254862,33.1649217 C23.6400784,33.3052458 23.8666466,33.4316161 24.1050932,33.5439344 C24.3832648,33.6804261 24.5880232,33.8008022 24.7191737,33.9049643 C24.8503243,34.0092247 24.9159482,34.1377569 24.9159482,34.2899712 C24.9159482,34.4184051 24.8700893,34.5168678 24.7787611,34.584868 C24.6873354,34.6530647 24.5740027,34.6870648 24.4389575,34.6870648 C24.2243653,34.6870648 24.007631,34.6389144 23.7891441,34.5426136 C23.5703652,34.4465092 23.3696961,34.3221043 23.1869421,34.1696934 L21.9469027,36.1552598 C22.0739639,36.2676764 22.2289688,36.3799946 22.4118201,36.4921163 C22.5946714,36.6045328 22.7952431,36.7047643 23.0140221,36.7931056 C23.2326063,36.8812504 23.471053,36.9514124 23.7293621,37.00369 C23.8094934,37.0198057 23.891572,37.0325803 23.9744295,37.0437826 L23.9744295,38.25 L25.629633,38.25 L25.629633,36.9119094 C25.9814124,36.7995912 26.2959011,36.6278219 26.5731964,36.396012 C26.8512705,36.1634159 27.0739441,35.8624266 27.2408275,35.4934371 C27.407711,35.1245459 27.4912501,34.6832325 27.4912501,34.1696934 C27.4912501,33.7766287 27.4256261,33.4357433 27.2944756,33.1468407 C27.1636172,32.8581347 27.0025756,32.6113883 26.8118377,32.4067981 Z" id="Shape" fill="#FBB03B" fill-rule="nonzero"></path>
                    <path d="M23.183564,32.5833333 L27.6242214,32.5833333 C27.5736071,32.5215244 27.5211219,32.4622704 27.4658307,32.4067505 C27.262126,32.2020639 27.0458457,32.0336371 26.816678,31.9012737 C26.5876142,31.7689103 26.3795444,31.6587549 26.1930923,31.5704143 C25.8621762,31.4181031 25.6394522,31.3015604 25.5249203,31.2214742 C25.4103884,31.1412896 25.3531224,31.0368336 25.3531224,30.9085973 C25.3531224,30.7481301 25.4082058,30.6358128 25.5185805,30.5715473 C25.6287473,30.50738 25.7519055,30.4752473 25.8876393,30.4752473 C26.0658809,30.4752473 26.2524369,30.5216285 26.4476192,30.6137031 C26.6426976,30.7060725 26.8124168,30.8203551 26.956673,30.9567474 L28.3185841,28.9951749 C28.0300718,28.7384076 27.67151,28.5299868 27.2431067,28.3694213 C26.9278841,28.2514046 26.5813783,28.177116 26.2042129,28.1458677 L26.2042129,26.9166667 L24.4373869,26.9166667 L24.4373869,28.3713866 C24.1694529,28.4732877 23.9208501,28.6109575 23.692202,28.7845923 C23.3909062,29.0130592 23.1427191,29.310017 22.9476407,29.6750727 C22.7523545,30.0402266 22.6548673,30.483305 22.6548673,31.0046026 C22.6548673,31.3656294 22.7077681,31.680668 22.8139855,31.9493254 C22.908147,32.1882084 23.0324484,32.3984963 23.183564,32.5833333 Z" id="Shape" fill="url(#linearGradient-2)" fill-rule="nonzero" opacity="0.5"></path>
                    <g id="Group" transform="translate(56.637168, 5.666667)" fill="#6633CC" fill-rule="nonzero">
                        <path d="M0.0906834542,9.5118391 C0.0906834542,8.07095346 0.273447027,6.76516356 0.639373221,5.59528324 C1.00490037,4.42540293 1.51228876,3.42520612 2.1607403,2.5942859 C2.80919184,1.76377261 3.57805585,1.12359375 4.46773137,0.67415625 C5.35700783,0.225125665 6.3339749,0.000203457447 7.39823353,0.000203457447 C8.063046,0.000203457447 8.67019617,0.0637839096 9.21888594,0.190944814 C9.7675757,0.318105718 10.2539144,0.492163564 10.6779019,0.712304521 C11.1018895,0.932852394 11.4759961,1.17883245 11.8002219,1.44983777 C12.1244477,1.72125 12.4026832,2.00934574 12.6357268,2.31453191 L9.74263526,6.51084176 C9.52635173,6.22274601 9.28512776,5.96404987 9.01936238,5.73516024 C8.75319797,5.50627061 8.37909131,5.3918258 7.89704241,5.3918258 C7.54787619,5.3918258 7.23612064,5.49355452 6.96177576,5.69701197 C6.68743088,5.90046941 6.45049666,6.18459774 6.25097311,6.54899003 C6.05144956,6.91378923 5.90180689,7.35010372 5.80204512,7.85874734 C5.70228334,8.36739096 5.65240245,8.91855718 5.65240245,9.5118391 C5.65240245,10.1055279 5.70228334,10.6479455 5.80204512,11.1394987 C5.90180689,11.6314588 6.05144956,12.0594315 6.25097311,12.4238238 C6.45049666,12.788623 6.69132159,13.0723444 6.97424598,13.2758019 C7.25677133,13.4792593 7.57281664,13.580988 7.92198285,13.580988 C8.32102995,13.580988 8.66590641,13.4665432 8.95701127,13.2376536 C9.24771709,13.008764 9.48465131,12.7588165 9.66781393,12.4874043 L12.6856076,16.5565532 C12.4362032,16.8959202 12.1450983,17.2138225 11.8126921,17.51026 C11.4798868,17.8071044 11.1018895,18.0658005 10.6779019,18.2859415 C10.2539144,18.5064894 9.77146641,18.6841077 9.23135616,18.8200173 C8.69084686,18.9555199 8.07980598,19.0234747 7.39823353,19.0234747 C6.3339749,19.0234747 5.35700783,18.7945851 4.46773137,18.3368059 C3.57805585,17.8790266 2.80919184,17.230506 2.1607403,16.391244 C1.51228876,15.551982 1.00490037,14.5517852 0.639373221,13.3902467 C0.273447027,12.229115 0.0906834542,10.9360412 0.0906834542,9.5118391 Z" id="Shape"></path>
                        <polygon id="Shape" points="13.5733877 0.508847074 19.0353449 0.508847074 19.0353449 13.4283949 23.5745057 13.4283949 23.5745057 18.5148311 13.5733877 18.5148311"></polygon>
                        <path d="M32.8722034,16.0224774 L29.8294693,16.0224774 L29.3556008,18.5148311 L23.9435245,18.5148311 L28.1085787,0.508847074 L34.8175581,0.508847074 L39.0075527,18.5148311 L33.3460719,18.5148311 L32.8722034,16.0224774 Z M30.4280399,11.749871 L32.2237519,11.749871 L31.4007173,5.90046941 L31.3009555,5.90046941 L30.4280399,11.749871 Z" id="Shape"></path>
                        <path d="M45.8959037,18.5148311 C43.5678629,18.5148311 41.788911,17.7308078 40.5586487,16.1623544 C39.3279875,14.5943078 38.7130559,12.3519016 38.7130559,9.43554255 C38.7130559,7.99465691 38.8833492,6.69324136 39.224335,5.53170279 C39.5649217,4.37057114 40.0555501,3.37871609 40.6958212,2.55613763 C41.3356932,1.73396609 42.1131367,1.1025359 43.0277527,0.66144016 C43.9419696,0.22075133 44.9645278,0.000203457447 46.0954273,0.000203457447 C47.2259277,0.000203457447 48.2441962,0.220344415 49.1506317,0.660219415 C50.0566681,1.10050133 50.8216414,1.71799468 51.4451525,2.51361503 C52.0686636,3.30923537 52.5464228,4.27362367 52.8792281,5.40728856 C53.2116343,6.54136037 53.3780369,7.79353923 53.3780369,9.16453723 C53.3780369,9.62150266 53.3406263,10.0911842 53.2658049,10.5736835 C53.1909836,11.0561828 53.0951125,11.5086722 52.9789898,11.9315585 C52.8624681,12.35475 52.7252956,12.7314515 52.5674725,13.061256 C52.4092503,13.3914674 52.255717,13.641008 52.1060743,13.8098777 L52.1060743,13.9116064 L54.4754165,13.7335811 L54.4754165,18.5148311 L45.8959037,18.5148311 Z M44.1999536,9.44825864 C44.1999536,10.0435751 44.2373642,10.5922999 44.3121856,11.0938225 C44.3870069,11.595752 44.4992389,12.0292181 44.6488816,12.3948311 C44.7985242,12.7604441 44.993758,13.0453863 45.234982,13.2495559 C45.4758069,13.4538271 45.762622,13.5555559 46.0954273,13.5555559 C46.7602398,13.5555559 47.2426877,13.168885 47.541973,12.3948311 C47.8412584,11.6211842 47.990901,10.6387899 47.990901,9.44825864 C47.990901,8.27481782 47.8369686,7.30961569 47.5295028,6.55255053 C47.221638,5.79589229 46.7438788,5.41725798 46.0954273,5.41725798 C45.762622,5.41725798 45.4758069,5.51939362 45.234982,5.72366489 C44.993758,5.92793617 44.7985242,6.20850399 44.6488816,6.56526662 C44.4992389,6.9225379 44.3870069,7.34766223 44.3121856,7.84084309 C44.2373642,8.33443085 44.1999536,8.87003258 44.1999536,9.44825864 Z" id="Shape"></path>
                        <path d="M61.5883313,19.0234747 C60.4243109,19.0234747 59.4348736,18.8327334 58.6204185,18.4512507 C57.8055643,18.069768 57.1364621,17.5400665 56.6127127,16.8617394 C56.0889634,16.1838191 55.7062773,15.3866729 55.4654523,14.4711144 C55.2242284,13.5555559 55.1038159,12.5637008 55.1038159,11.4955492 L55.1038159,0.508847074 L60.5657731,0.508847074 L60.5657731,11.0123378 C60.5657731,11.8770319 60.6363047,12.5343012 60.7777669,12.9833318 C60.91883,13.4327693 61.2224051,13.6572846 61.6880931,13.6572846 C62.153382,13.6572846 62.4612469,13.4327693 62.6108895,12.9833318 C62.7605322,12.5343012 62.8353535,11.8770319 62.8353535,11.0123378 L62.8353535,0.508847074 L68.2224894,0.508847074 L68.2224894,11.4955492 C68.2224894,12.5637008 68.0934974,13.5555559 67.8359125,14.4711144 C67.5779286,15.3866729 67.1788815,16.1838191 66.6387712,16.8617394 C66.0982619,17.5400665 65.4123997,18.069768 64.5811846,18.4512507 C63.7495704,18.8327334 62.7519527,19.0234747 61.5883313,19.0234747 Z" id="Shape"></path>
                        <polygon id="Shape" points="70.2424658 0.508847074 79.6699536 0.508847074 79.6699536 5.36639362 75.4051377 5.36639362 75.4051377 7.17207846 79.2709065 7.17207846 79.2709065 11.6735745 75.4051377 11.6735745 75.4051377 13.5555559 79.9941794 13.5555559 79.9941794 18.5148311 70.2424658 18.5148311"></polygon>
                        <polygon id="Shape" points="88.8205028 18.5148311 83.4832478 18.5148311 83.4832478 5.18836835 80.3656923 5.18836835 80.3656923 0.508847074 91.9380583 0.508847074 91.9380583 5.18836835 88.8205028 5.18836835"></polygon>
                        <polygon id="Shape" points="92.8156626 0.508847074 102.24315 0.508847074 102.24315 5.36639362 97.9783345 5.36639362 97.9783345 7.17207846 101.844103 7.17207846 101.844103 11.6735745 97.9783345 11.6735745 97.9783345 13.5555559 102.567376 13.5555559 102.567376 18.5148311 92.8156626 18.5148311"></polygon>
                    </g>
                    <g id="Group" transform="translate(58.053097, 25.500000)" fill="#23272B" fill-rule="nonzero">
                        <path d="M6.56173673,9.10452273 C6.87673673,9.17284091 7.21274336,9.30906818 7.56975664,9.51361364 C7.92637168,9.71815909 8.2542146,10.0038068 8.5532854,10.3701477 C8.85235619,10.7368977 9.10125,11.1883295 9.29996681,11.7252614 C9.49868363,12.2621932 9.59824115,12.8974091 9.59824115,13.6300909 C9.59824115,14.5677273 9.44850664,15.3519545 9.14903761,15.9823636 C8.84956858,16.6131818 8.46686947,17.1245455 8.00103982,17.5164545 C7.53511062,17.9087727 7.01950221,18.1900227 6.45401549,18.3602045 C5.88813053,18.5307955 5.3390708,18.6158864 4.8070354,18.6158864 L0.0407190265,18.6158864 L0.0407190265,0.513613636 L4.27191372,0.513613636 C4.76970133,0.513613636 5.29626106,0.577534091 5.85238938,0.705375 C6.40811947,0.833215909 6.91835177,1.06772727 7.38308628,1.4085 C7.84742257,1.74968182 8.22932522,2.20990909 8.52799779,2.78918182 C8.82667035,3.36886364 8.97600664,4.10195455 8.97600664,4.98804545 C8.97600664,5.58490909 8.90950221,6.10465909 8.77689159,6.54770455 C8.64388274,6.99115909 8.46577434,7.37867045 8.24176991,7.71105682 C8.01776549,8.04344318 7.76030973,8.32070455 7.47019912,8.54202273 C7.17969027,8.76375 6.87673673,8.93434091 6.56173673,9.05338636 L6.56173673,9.10452273 Z M6.88529867,5.33321591 C6.88529867,4.78554545 6.80206858,4.32767045 6.63640487,3.95928409 C6.47034292,3.59130682 6.25450221,3.29175 5.98928097,3.06040909 C5.7236615,2.82947727 5.42070796,2.66686364 5.08081858,2.57256818 C4.74053097,2.47827273 4.38779867,2.431125 4.02301991,2.431125 L2.15631637,2.431125 L2.15631637,8.28623864 L4.07279867,8.28623864 C4.40452434,8.28623864 4.74053097,8.23070455 5.08081858,8.11922727 C5.42070796,8.00815909 5.7236615,7.83675 5.98928097,7.60581818 C6.25450221,7.37488636 6.47034292,7.07093182 6.63640487,6.69415909 C6.80206858,6.31759091 6.88529867,5.86380682 6.88529867,5.33321591 Z M7.3581969,13.489875 C7.3581969,12.8738864 7.26252212,12.3476932 7.07196903,11.9113977 C6.8810177,11.4751023 6.63640487,11.124 6.3377323,10.8587045 C6.03905973,10.5934091 5.7030531,10.4012386 5.32971239,10.281375 C4.95637168,10.1615114 4.58691372,10.1015795 4.22213496,10.1015795 L2.15631637,10.1015795 L2.15631637,16.6981705 L4.32169248,16.6981705 C4.73625,16.6981705 5.13059735,16.63425 5.50393805,16.5055909 C5.87727876,16.3773409 6.20084071,16.1847614 6.47462389,15.9282614 C6.74840708,15.6717614 6.96384956,15.3422386 7.12174779,14.9398977 C7.27924779,14.5381705 7.3581969,14.0548295 7.3581969,13.489875 Z" id="Shape"></path>
                        <path d="M24.5948894,14.9852045 C24.4121018,15.7866136 24.1134292,16.4897386 23.6988717,17.0945795 C23.2839159,17.6998295 22.7406305,18.1772386 22.0686173,18.5263977 C21.396604,18.8755568 20.5709735,19.0505455 19.5921239,19.0505455 C18.6128761,19.0505455 17.7958075,18.8755568 17.1405199,18.5263977 C16.4848341,18.1772386 15.9497124,17.6998295 15.5351549,17.0945795 C15.1201991,16.4897386 14.8258075,15.7866136 14.6515819,14.9852045 C14.4773562,14.1842045 14.3902434,13.3232727 14.3902434,12.4028182 L14.3902434,0.513613636 L16.6302876,0.513613636 L16.6302876,12.1727045 C16.6302876,12.7863409 16.6757854,13.3788068 16.7671792,13.9496932 C16.8581748,14.5209886 17.016073,15.0279545 17.2400774,15.471 C17.4640819,15.9144545 17.7709181,16.2680114 18.1609845,16.5320795 C18.5506527,16.7965568 19.0445575,16.9283864 19.6419027,16.9283864 C20.2392478,16.9283864 20.7284735,16.7965568 21.1103761,16.5320795 C21.4918805,16.2680114 21.7948341,15.9144545 22.0188385,15.471 C22.2428429,15.0279545 22.4003429,14.5209886 22.4917367,13.9496932 C22.5827323,13.3788068 22.6286283,12.7863409 22.6286283,12.1727045 L22.6286283,0.513613636 L24.8686726,0.513613636 L24.8686726,12.4028182 C24.8686726,13.3232727 24.7772788,14.1842045 24.5948894,14.9852045 Z" id="Shape"></path>
                        <path d="M38.3518473,13.8090682 C38.3518473,14.62725 38.2274004,15.3647386 37.9785066,16.0207159 C37.7296128,16.6771023 37.3936062,17.2268182 36.9704867,17.6698636 C36.5473673,18.1133182 36.0452987,18.4540909 35.4646792,18.6925909 C34.8836615,18.9310909 34.261427,19.0505455 33.5979757,19.0505455 C32.701958,19.0505455 31.8514381,18.8587841 31.0468142,18.4752614 C30.241792,18.0917386 29.5989491,17.5847727 29.1178872,16.9539545 L30.4370243,15.2920227 C30.8185288,15.8033864 31.295708,16.2040909 31.8681637,16.4937273 C32.4406195,16.7837727 33.016958,16.9283864 33.5979757,16.9283864 C34.3446571,16.9283864 34.9583296,16.6727045 35.4397898,16.1613409 C35.9208518,15.6499773 36.1615819,14.9085 36.1615819,13.9369091 C36.1615819,13.4766818 36.0869137,13.0719886 35.9375774,12.7224205 C35.7882412,12.3732614 35.5805642,12.0576477 35.3153429,11.7763977 C35.0497235,11.4951477 34.7467699,11.2394659 34.4068805,11.0093523 C34.0665929,10.7792386 33.6975332,10.5619091 33.2993031,10.3573636 C32.8178429,10.1188636 32.3659513,9.85039773 31.9428319,9.55196591 C31.5197124,9.25394318 31.1420907,8.90877273 30.810365,8.51645455 C30.4782412,8.12454545 30.2169027,7.65992045 30.0263496,7.12298864 C29.8353982,6.58605682 29.7401217,5.95125 29.7401217,5.21815909 C29.7401217,4.34884091 29.8727323,3.59059091 30.1383518,2.94259091 C30.403573,2.295 30.7563053,1.75806818 31.1961504,1.33179545 C31.6355973,0.905931818 32.1376659,0.590318182 32.701958,0.385772727 C33.2658518,0.181227273 33.8383075,0.0789545455 34.4193252,0.0789545455 C35.2655642,0.0789545455 36.0246903,0.223977273 36.6967035,0.513613636 C37.3687168,0.803659091 37.9287279,1.23831818 38.3767367,1.81759091 L37.0327102,3.45395455 C36.4019137,2.60181818 35.5556748,2.17554545 34.4939934,2.17554545 C34.1785951,2.17554545 33.8674779,2.23107955 33.5606416,2.34173864 C33.2534071,2.45280682 32.9757412,2.63178409 32.7268473,2.87867045 C32.4779535,3.12596591 32.2788385,3.43718182 32.1295022,3.81190909 C31.9801659,4.18704545 31.9054978,4.63888636 31.9054978,5.16702273 C31.9054978,5.62725 31.975885,6.02355682 32.1170575,6.35594318 C32.2578319,6.68832955 32.4487832,6.98676136 32.6895133,7.25082955 C32.9298451,7.51530682 33.2079093,7.75380682 33.5233075,7.96673864 C33.8383075,8.18007955 34.1785951,8.38022727 34.5437721,8.56759091 C35.0081084,8.8065 35.4646792,9.07496591 35.9126881,9.37298864 C36.3606969,9.67142045 36.7670907,10.0249773 37.1322677,10.4340682 C37.4970465,10.8431591 37.7918363,11.3249659 38.0158407,11.8786705 C38.2398451,12.4327841 38.3518473,13.0763864 38.3518473,13.8090682 Z" id="Shape"></path>
                        <polygon id="Shape" points="43.218219 18.6158864 43.218219 0.513613636 45.4582633 0.513613636 45.4582633 18.6158864"></polygon>
                        <polygon id="Shape" points="59.0756416 18.6158864 53.4506416 4.57895455 53.3759735 4.57895455 53.3759735 18.6158864 51.3101549 18.6158864 51.3101549 0.513613636 53.998208 0.513613636 59.5485398 14.5761136 59.623208 14.5761136 59.623208 0.513613636 61.6890265 0.513613636 61.6890265 18.6158864"></polygon>
                        <polygon id="Shape" points="67.5512721 18.6158864 67.5512721 0.513613636 74.9683075 0.513613636 74.9683075 2.55906818 69.7166482 2.55906818 69.7166482 8.26077273 74.6198562 8.26077273 74.6198562 10.1783864 69.7166482 10.1783864 69.7166482 16.5448636 75.2172013 16.5448636 75.2172013 18.6158864"></polygon>
                        <path d="M88.6979867,13.8090682 C88.6979867,14.62725 88.5735398,15.3647386 88.324646,16.0207159 C88.0757522,16.6771023 87.7397456,17.2268182 87.3166261,17.6698636 C86.8935066,18.1133182 86.3914381,18.4540909 85.8108186,18.6925909 C85.2298009,18.9310909 84.6075664,19.0505455 83.944115,19.0505455 C83.0480973,19.0505455 82.1975774,18.8587841 81.3929535,18.4752614 C80.5879314,18.0917386 79.9450885,17.5847727 79.4640265,16.9539545 L80.7831637,15.2920227 C81.1646681,15.8033864 81.6418473,16.2040909 82.2143031,16.4937273 C82.7867588,16.7837727 83.3630973,16.9283864 83.944115,16.9283864 C84.6907965,16.9283864 85.304469,16.6727045 85.7859292,16.1613409 C86.2669912,15.6499773 86.5077212,14.9085 86.5077212,13.9369091 C86.5077212,13.4766818 86.4330531,13.0719886 86.2837168,12.7224205 C86.1343805,12.3732614 85.9267035,12.0576477 85.6614823,11.7763977 C85.3958628,11.4951477 85.0929093,11.2394659 84.7530199,11.0093523 C84.4127323,10.7792386 84.0436726,10.5619091 83.6454425,10.3573636 C83.1639823,10.1188636 82.7120907,9.85039773 82.2889712,9.55196591 C81.8658518,9.25394318 81.4882301,8.90877273 81.1565044,8.51645455 C80.8243805,8.12454545 80.563042,7.65992045 80.3724889,7.12298864 C80.1815376,6.58605682 80.0862611,5.95125 80.0862611,5.21815909 C80.0862611,4.34884091 80.2188717,3.59059091 80.4844912,2.94259091 C80.7497124,2.295 81.1024447,1.75806818 81.5422898,1.33179545 C81.9817367,0.905931818 82.4838053,0.590318182 83.0480973,0.385772727 C83.6119912,0.181227273 84.1844469,0.0789545455 84.7654646,0.0789545455 C85.6117035,0.0789545455 86.3708296,0.223977273 87.0428429,0.513613636 C87.7148562,0.803659091 88.2748673,1.23831818 88.7228761,1.81759091 L87.3788496,3.45395455 C86.7480531,2.60181818 85.9018142,2.17554545 84.8401327,2.17554545 C84.5247345,2.17554545 84.2136173,2.23107955 83.906781,2.34173864 C83.5995465,2.45280682 83.3218805,2.63178409 83.0729867,2.87867045 C82.8240929,3.12596591 82.6249779,3.43718182 82.4756416,3.81190909 C82.3263053,4.18704545 82.2516372,4.63888636 82.2516372,5.16702273 C82.2516372,5.62725 82.3220243,6.02355682 82.4631969,6.35594318 C82.6039712,6.68832955 82.7949226,6.98676136 83.0356527,7.25082955 C83.2759845,7.51530682 83.5540487,7.75380682 83.8694469,7.96673864 C84.1844469,8.18007955 84.5247345,8.38022727 84.8899115,8.56759091 C85.3542478,8.8065 85.8108186,9.07496591 86.2588274,9.37298864 C86.7068363,9.67142045 87.1132301,10.0249773 87.4784071,10.4340682 C87.8431858,10.8431591 88.1379757,11.3249659 88.3619801,11.8786705 C88.5859845,12.4327841 88.6979867,13.0763864 88.6979867,13.8090682 Z" id="Shape"></path>
                        <path d="M101.887367,13.8090682 C101.887367,14.62725 101.76292,15.3647386 101.514027,16.0207159 C101.265133,16.6771023 100.929126,17.2268182 100.506007,17.6698636 C100.082887,18.1133182 99.5808186,18.4540909 99.0001991,18.6925909 C98.4191814,18.9310909 97.7969469,19.0505455 97.1334956,19.0505455 C96.2374779,19.0505455 95.386958,18.8587841 94.5823341,18.4752614 C93.7773119,18.0917386 93.134469,17.5847727 92.6534071,16.9539545 L93.9725442,15.2920227 C94.3540487,15.8033864 94.8312279,16.2040909 95.4036836,16.4937273 C95.9761394,16.7837727 96.5524779,16.9283864 97.1334956,16.9283864 C97.880177,16.9283864 98.4938496,16.6727045 98.9753097,16.1613409 C99.4563717,15.6499773 99.6971018,14.9085 99.6971018,13.9369091 C99.6971018,13.4766818 99.6224336,13.0719886 99.4730973,12.7224205 C99.3237611,12.3732614 99.1160841,12.0576477 98.8508628,11.7763977 C98.5852434,11.4951477 98.2822898,11.2394659 97.9424004,11.0093523 C97.6021128,10.7792386 97.2330531,10.5619091 96.834823,10.3573636 C96.3533628,10.1188636 95.9014712,9.85039773 95.4783518,9.55196591 C95.0552323,9.25394318 94.6776106,8.90877273 94.345885,8.51645455 C94.0137611,8.12454545 93.7524226,7.65992045 93.5618695,7.12298864 C93.3709181,6.58605682 93.2756416,5.95125 93.2756416,5.21815909 C93.2756416,4.34884091 93.4082522,3.59059091 93.6738717,2.94259091 C93.9390929,2.295 94.2918252,1.75806818 94.7316704,1.33179545 C95.1711173,0.905931818 95.6731858,0.590318182 96.2374779,0.385772727 C96.8013717,0.181227273 97.3738274,0.0789545455 97.9548451,0.0789545455 C98.8010841,0.0789545455 99.5602102,0.223977273 100.232223,0.513613636 C100.904237,0.803659091 101.464248,1.23831818 101.912257,1.81759091 L100.56823,3.45395455 C99.9374336,2.60181818 99.0911947,2.17554545 98.0295133,2.17554545 C97.714115,2.17554545 97.4029978,2.23107955 97.0961615,2.34173864 C96.788927,2.45280682 96.5112611,2.63178409 96.2623673,2.87867045 C96.0134735,3.12596591 95.8143584,3.43718182 95.6650221,3.81190909 C95.5156858,4.18704545 95.4410177,4.63888636 95.4410177,5.16702273 C95.4410177,5.62725 95.5114049,6.02355682 95.6525774,6.35594318 C95.7933518,6.68832955 95.9843031,6.98676136 96.2250332,7.25082955 C96.465365,7.51530682 96.7434292,7.75380682 97.0588274,7.96673864 C97.3738274,8.18007955 97.714115,8.38022727 98.079292,8.56759091 C98.5436283,8.8065 99.0001991,9.07496591 99.448208,9.37298864 C99.8962168,9.67142045 100.302611,10.0249773 100.667788,10.4340682 C101.032566,10.8431591 101.327356,11.3249659 101.551361,11.8786705 C101.775365,12.4327841 101.887367,13.0763864 101.887367,13.8090682 Z" id="Shape"></path>
                    </g>
                </g>
            </g>
        </g>
    </g>
</svg>